<?xml version="1.0" standalone="no"?>
<!DOCTYPE svg PUBLIC "-//W3C//DTD SVG 20010904//EN"
 "http://www.w3.org/TR/2001/REC-SVG-20010904/DTD/svg10.dtd">
<svg version="1.0" xmlns="http://www.w3.org/2000/svg"
 width="260.000000pt" height="260.000000pt" viewBox="0 0 260.000000 260.000000"
 preserveAspectRatio="xMidYMid meet">
<metadata>
Created by potrace 1.11, written by Peter Selinger 2001-2013
</metadata>
<g transform="translate(0.000000,260.000000) scale(0.100000,-0.100000)"
fill="#000000" stroke="none">
<path d="M0 1300 l0 -1300 1300 0 1300 0 0 1300 0 1300 -1300 0 -1300 0 0
-1300z m1332 125 c-6 -52 -22 -53 -22 -1 0 33 4 44 13 40 8 -3 11 -17 9 -39z
m-88 -95 c-1 -30 -8 -71 -17 -90 l-16 -35 7 45 c4 25 7 73 7 108 -1 47 2 58 9
45 6 -10 10 -43 10 -73z m-89 5 c-8 -26 -15 -62 -16 -79 l-1 -31 -9 30 c-10
33 -3 67 19 107 22 38 24 30 7 -27z m192 -87 c7 -16 10 -28 5 -28 -11 0 -32
46 -31 68 0 14 2 14 6 2 3 -8 12 -27 20 -42z m-699 -205 l-3 -88 -187 -3 -188
-2 0 -70 0 -70 160 0 160 0 0 -85 0 -85 -160 0 -160 0 0 -170 0 -170 -125 0
-125 0 0 415 0 415 315 0 316 0 -3 -87z m322 -328 l0 -415 -130 0 -130 0 0
415 0 415 130 0 130 0 0 -415z m732 387 c165 -81 150 -337 -23 -412 l-53 -22
31 -13 c45 -19 87 -76 160 -215 36 -69 67 -127 69 -129 3 -3 3 181 2 407 l-3
412 343 0 342 0 0 -90 0 -90 -215 0 -215 0 0 -65 0 -65 200 0 200 0 0 -80 0
-80 -200 0 -200 0 0 -85 0 -85 220 0 220 0 0 -95 0 -95 -491 2 -491 3 -79 145
c-44 80 -88 153 -97 163 -10 10 -35 20 -55 24 l-37 6 0 -172 0 -172 -127 3
-128 3 -3 413 -2 414 292 -4 c283 -3 295 -4 340 -26z m-1074 -1005 l37 -4 -42
-1 -43 -2 2 78 2 77 3 -72 4 -72 37 -4z m256 127 c19 -19 21 -93 4 -116 -23
-29 -72 -27 -89 3 -29 55 -6 129 41 129 16 0 36 -7 44 -16z m178 -51 c3 -65 4
-68 28 -68 24 0 25 3 28 68 4 83 22 89 22 7 0 -47 -4 -64 -20 -80 -24 -24 -29
-24 -58 -4 -19 13 -22 24 -22 80 0 85 18 83 22 -3z m265 15 l28 -52 3 52 c5
80 22 62 22 -23 0 -41 -4 -75 -9 -75 -5 0 -24 26 -43 58 l-33 57 -6 -60 -6
-60 -1 78 c-1 42 2 77 7 77 6 0 22 -23 38 -52z m293 37 c18 -22 5 -31 -15 -11
-20 20 -26 20 -50 2 -22 -16 -26 -76 -6 -100 16 -19 42 -21 59 -4 18 18 14 38
-8 38 -11 0 -20 5 -20 11 0 6 12 9 28 7 23 -3 27 -8 27 -33 0 -23 -7 -33 -29
-43 -25 -13 -31 -12 -55 5 -33 25 -42 95 -15 124 21 23 67 25 84 4z m240 5 c0
-5 -16 -10 -35 -10 -28 0 -35 -4 -35 -20 0 -16 7 -20 35 -20 19 0 35 -4 35
-10 0 -5 -16 -10 -35 -10 -32 0 -35 -2 -35 -29 0 -28 3 -30 43 -34 40 -3 40
-4 -10 -5 l-53 -2 0 75 0 75 45 0 c25 0 45 -4 45 -10z"/>
<path d="M1330 879 l0 -81 96 4 c86 4 99 7 115 27 26 32 24 82 -4 109 -20 19
-35 22 -115 22 l-92 0 0 -81z"/>
<path d="M820 210 c-25 -25 -26 -61 -2 -91 22 -27 47 -21 63 15 15 31 4 72
-21 86 -15 8 -24 6 -40 -10z"/>
</g>
</svg>
